<?xml version="1.0" encoding="UTF-8"?>
<svg version="1.1" xmlns="http://www.w3.org/2000/svg" width="500" height="500">
<path d="M0 0 C7.51414858 3.77438799 12.83017501 10.04476641 17.5625 16.8125 C17.95679199 17.37565918 18.35108398 17.93881836 18.75732422 18.51904297 C20.58635898 21.2458037 21.5 22.64730061 21.5 26 C22.16 26 22.82 26 23.5 26 C34.05932397 47.70825487 39.5831933 69.41968291 39.75 93.5625 C39.75950684 94.6868042 39.76901367 95.8111084 39.77880859 96.96948242 C39.7365061 107.70883156 38.27240779 117.97841222 35.375 128.3125 C35.19324219 128.96927734 35.01148438 129.62605469 34.82421875 130.30273438 C34.38940996 131.8703345 33.94576883 133.43548123 33.5 135 C29.65255948 135.89244754 26.69932743 135.8177697 22.78125 135.26953125 C9.88129909 133.74539321 -2.27167498 136.03277872 -13.390625 142.79296875 C-15.5 144 -15.5 144 -17.5 144 C-17.5 144.66 -17.5 145.32 -17.5 146 C-14.69954954 146.85650653 -14.69954954 146.85650653 -11.5 147 C-9.47901574 145.22977996 -9.47901574 145.22977996 -7.5 143 C4.52285673 136.7481145 19.63147986 136.00782031 32.5625 139.6875 C37.594013 141.44602631 41.50482239 143.46937793 45.5 147 C45.5 147.66 45.5 148.32 45.5 149 C46.16 149 46.82 149 47.5 149 C48.28130543 150.30629327 49.04933177 151.62052827 49.8125 152.9375 C50.45638672 154.03384766 50.45638672 154.03384766 51.11328125 155.15234375 C54.70472548 162.52745036 56.03023748 169.12584157 55.9375 177.3125 C55.92614014 178.74275513 55.92614014 178.74275513 55.91455078 180.2019043 C55.41686047 202.18201548 48.53168954 230.96831046 32.5 247 C29.69084526 248.40457737 27.61189466 248.24895157 24.5 248 C21.9955913 246.64626557 20.77991308 245.86921498 19.89865112 243.13262939 C19.23585912 239.5869484 19.44271973 236.01371824 19.5078125 232.421875 C19.5253625 230.68490202 19.54226743 228.94792242 19.55859375 227.2109375 C19.58921793 224.49948272 19.62433409 221.78837036 19.67138672 219.07714844 C20.03413685 196.97792109 17.82033232 173.59086364 1.75 156.875 C-0.4612652 154.71539988 -1.48207966 154.00597345 -4.5 153 C-4.0875 153.41507813 -3.675 153.83015625 -3.25 154.2578125 C0.75435512 158.5303164 3.90171136 163.00897278 6.8125 168.0625 C7.31813477 168.9280249 7.31813477 168.9280249 7.83398438 169.81103516 C12.56128505 178.24138803 13.43902369 186.4896554 12.5 196 C11.47130125 199.07267845 10.26011233 201.24982449 8.5 204 C7.84 204 7.18 204 6.5 204 C6.42523438 204.52722656 6.35046875 205.05445313 6.2734375 205.59765625 C5.18575635 208.97605982 3.19517438 211.60071049 1.125 214.4375 C0.46540283 215.35088135 0.46540283 215.35088135 -0.20751953 216.28271484 C-5.99049497 224.18007158 -12.22712536 232.41978009 -19.5 239 C-20.16 239 -20.82 239 -21.5 239 C-21.5 239.66 -21.5 240.32 -21.5 241 C-22.16 241 -22.82 241 -23.5 241 C-23.5 241.66 -23.5 242.32 -23.5 243 C-24.16 243 -24.82 243 -25.5 243 C-25.5 243.66 -25.5 244.32 -25.5 245 C-29.97058824 249 -29.97058824 249 -32.5 249 C-32.5 249.66 -32.5 250.32 -32.5 251 C-34.88583884 252.68340913 -37.26052897 254.23325844 -39.75 255.75 C-40.4821875 256.19956055 -41.214375 256.64912109 -41.96875 257.11230469 C-61.54412434 268.99613116 -81.13524431 274.9438532 -103.6875 278 C-109.93857439 278.8998976 -115.0350692 281.05856018 -120.5078125 284.125 C-123.89287246 285.61177143 -127.09106531 285.10457102 -130.5 284 C-134.29485035 281.52927872 -136.99373465 278.75939802 -139.5 275 C-139.75760279 272.30547479 -139.58900053 269.71451625 -139.5 267 C-138.84 267 -138.18 267 -137.5 267 C-137.5 266.34 -137.5 265.68 -137.5 265 C-136.84 265 -136.18 265 -135.5 265 C-135.5 264.34 -135.5 263.68 -135.5 263 C-133.85546875 261.4140625 -133.85546875 261.4140625 -131.6875 259.625 C-129.43749143 257.76433718 -127.59649715 256.13127297 -125.86328125 253.7734375 C-125.18845703 252.89558594 -125.18845703 252.89558594 -124.5 252 C-123.84 252 -123.18 252 -122.5 252 C-122.24476563 251.2678125 -121.98953125 250.535625 -121.7265625 249.78125 C-120.43383718 246.84997475 -118.95734826 244.9224928 -116.875 242.5 C-112.69777162 237.45378615 -109.43932399 232.14233979 -106.1640625 226.4921875 C-105.61492187 225.66976562 -105.06578125 224.84734375 -104.5 224 C-103.84 224 -103.18 224 -102.5 224 C-101.84 222.35 -101.18 220.7 -100.5 219 C-99.46101563 219.05800781 -98.42203125 219.11601562 -97.3515625 219.17578125 C-88.75267328 219.51333669 -81.63565848 219.48061982 -74.5 214 C-72.72080037 212.19846732 -71.15305541 210.39617147 -69.65625 208.35546875 C-69.2746875 207.90816406 -68.893125 207.46085938 -68.5 207 C-67.84 207 -67.18 207 -66.5 207 C-62.54372408 196.0767099 -62.54372408 196.0767099 -61.75 184.625 C-61.87712348 178.49129187 -58.60482606 174.08481047 -55.5 169 C-54.16083234 166.66974198 -52.82786895 164.33664254 -51.5 162 C-50.82035835 160.81637992 -50.14067125 159.63278594 -49.4609375 158.44921875 C-47.15823736 154.39885176 -44.92989485 150.31212253 -42.7265625 146.20703125 C-41.5 144 -41.5 144 -39.5 141 C-39.80840599 138.84725052 -39.80840599 138.84725052 -40.5 137 C-59.57721798 135.87597406 -75.83246339 144.13191216 -91.265625 154.65234375 C-93.39181593 155.93474912 -95.07348911 156.56033404 -97.5 157 C-97.5 157.66 -97.5 158.32 -97.5 159 C-99.30361851 160.34160786 -101.17065433 161.59846897 -103.0625 162.8125 C-106.62036487 165.12007745 -110.14868327 167.42128164 -113.5625 169.9375 C-117.95560586 173.02202113 -121.19567589 173.37888029 -126.5 173 C-128.5 172 -128.5 172 -129.5 170 C-129.61887387 163.10531556 -127.01396837 158.17250487 -122.5 153 C-121.84 153 -121.18 153 -120.5 153 C-120.28472656 152.45601562 -120.06945312 151.91203125 -119.84765625 151.3515625 C-118.03620359 148.19070887 -115.54503977 145.87236204 -112.9375 143.375 C-109.27285984 140.03597098 -109.27285984 140.03597098 -106.5 136 C-105.84 136 -105.18 136 -104.5 136 C-104.5 135.34 -104.5 134.68 -104.5 134 C-99.02380952 129 -99.02380952 129 -96.5 129 C-96.5 128.34 -96.5 127.68 -96.5 127 C-94.025 126.01 -94.025 126.01 -91.5 125 C-91.5 124.34 -91.5 123.68 -91.5 123 C-86.08823529 119 -86.08823529 119 -83.5 119 C-83.5 118.34 -83.5 117.68 -83.5 117 C-59.86281507 103.64106965 -59.86281507 103.64106965 -46.5 105 C-38.205647 107.67106283 -34.41533291 112.60437116 -30.5 120 C-18.31314213 101.7197132 -23.16334091 66.12085555 -25.41918945 45.70654297 C-28.75698386 14.73392361 -28.75698386 14.73392361 -21.1875 4.625 C-14.79622651 -1.61763922 -8.35268767 -2.38648219 0 0 Z " fill="#6F6F6F" transform="translate(288.5,108)"/>
<path d="M0 0 C0.66 0.33 1.32 0.66 2 1 C-0.23798345 5.30028902 -2.89651508 7.82431189 -6.6875 10.8125 C-8.17830078 11.99779297 -8.17830078 11.99779297 -9.69921875 13.20703125 C-10.83810547 14.09455078 -10.83810547 14.09455078 -12 15 C-12.66 14.67 -13.32 14.34 -14 14 C-13.04882866 12.8274869 -12.08882991 11.66212985 -11.125 10.5 C-10.59132812 9.8503125 -10.05765625 9.200625 -9.5078125 8.53125 C-9.01023438 8.0259375 -8.51265625 7.520625 -8 7 C-7.34 7 -6.68 7 -6 7 C-6 6.34 -6 5.68 -6 5 C-4.04072937 3.2856382 -2.04119788 1.61594832 0 0 Z " fill="#898989" transform="translate(190,237)"/>
<path d="M0 0 C6.93 0.495 6.93 0.495 14 1 C9.5027027 3.24864865 9.5027027 3.24864865 5.9375 3.125 C3.62578924 3.05161236 1.31287534 3 -1 3 C-0.67 2.01 -0.34 1.02 0 0 Z " fill="#939292" transform="translate(188,327)"/>
<path d="" fill="#FFFFFF" transform="translate(0,0)"/>
<path d="" fill="#FFFFFF" transform="translate(0,0)"/>
<path d="" fill="#FFFFFF" transform="translate(0,0)"/>
<path d="" fill="#FFFFFF" transform="translate(0,0)"/>
<path d="" fill="#FFFFFF" transform="translate(0,0)"/>
<path d="" fill="#FFFFFF" transform="translate(0,0)"/>
<path d="" fill="#FFFFFF" transform="translate(0,0)"/>
<path d="" fill="#FFFFFF" transform="translate(0,0)"/>
<path d="" fill="#FFFFFF" transform="translate(0,0)"/>
<path d="" fill="#FFFFFF" transform="translate(0,0)"/>
<path d="" fill="#FFFFFF" transform="translate(0,0)"/>
<path d="" fill="#FFFFFF" transform="translate(0,0)"/>
<path d="" fill="#FFFFFF" transform="translate(0,0)"/>
<path d="" fill="#FFFFFF" transform="translate(0,0)"/>
<path d="" fill="#FFFFFF" transform="translate(0,0)"/>
<path d="" fill="#FFFFFF" transform="translate(0,0)"/>
<path d="" fill="#FFFFFF" transform="translate(0,0)"/>
<path d="" fill="#FFFFFF" transform="translate(0,0)"/>
<path d="" fill="#FFFFFF" transform="translate(0,0)"/>
<path d="" fill="#FFFFFF" transform="translate(0,0)"/>
<path d="" fill="#FFFFFF" transform="translate(0,0)"/>
<path d="" fill="#FFFFFF" transform="translate(0,0)"/>
<path d="" fill="#FFFFFF" transform="translate(0,0)"/>
<path d="" fill="#FFFFFF" transform="translate(0,0)"/>
<path d="" fill="#FFFFFF" transform="translate(0,0)"/>
<path d="" fill="#FFFFFF" transform="translate(0,0)"/>
<path d="" fill="#FFFFFF" transform="translate(0,0)"/>
<path d="" fill="#FFFFFF" transform="translate(0,0)"/>
<path d="" fill="#FFFFFF" transform="translate(0,0)"/>
<path d="" fill="#FFFFFF" transform="translate(0,0)"/>
<path d="" fill="#FFFFFF" transform="translate(0,0)"/>
<path d="" fill="#FFFFFF" transform="translate(0,0)"/>
<path d="" fill="#FFFFFF" transform="translate(0,0)"/>
<path d="" fill="#FFFFFF" transform="translate(0,0)"/>
<path d="" fill="#FFFFFF" transform="translate(0,0)"/>
<path d="" fill="#FFFFFF" transform="translate(0,0)"/>
<path d="" fill="#FFFFFF" transform="translate(0,0)"/>
<path d="" fill="#FFFFFF" transform="translate(0,0)"/>
<path d="" fill="#FFFFFF" transform="translate(0,0)"/>
<path d="" fill="#FFFFFF" transform="translate(0,0)"/>
<path d="" fill="#FFFFFF" transform="translate(0,0)"/>
<path d="" fill="#FFFFFF" transform="translate(0,0)"/>
<path d="" fill="#FFFFFF" transform="translate(0,0)"/>
<path d="" fill="#FFFFFF" transform="translate(0,0)"/>
<path d="" fill="#FFFFFF" transform="translate(0,0)"/>
<path d="" fill="#FFFFFF" transform="translate(0,0)"/>
<path d="" fill="#FFFFFF" transform="translate(0,0)"/>
<path d="" fill="#FFFFFF" transform="translate(0,0)"/>
<path d="" fill="#FFFFFF" transform="translate(0,0)"/>
<path d="" fill="#FFFFFF" transform="translate(0,0)"/>
<path d="" fill="#FFFFFF" transform="translate(0,0)"/>
<path d="" fill="#FFFFFF" transform="translate(0,0)"/>
<path d="" fill="#FFFFFF" transform="translate(0,0)"/>
<path d="" fill="#FFFFFF" transform="translate(0,0)"/>
<path d="" fill="#FFFFFF" transform="translate(0,0)"/>
<path d="" fill="#FFFFFF" transform="translate(0,0)"/>
<path d="" fill="#FFFFFF" transform="translate(0,0)"/>
<path d="" fill="#FFFFFF" transform="translate(0,0)"/>
<path d="" fill="#FFFFFF" transform="translate(0,0)"/>
<path d="" fill="#FFFFFF" transform="translate(0,0)"/>
<path d="" fill="#FFFFFF" transform="translate(0,0)"/>
<path d="" fill="#FFFFFF" transform="translate(0,0)"/>
<path d="" fill="#FFFFFF" transform="translate(0,0)"/>
<path d="" fill="#FFFFFF" transform="translate(0,0)"/>
<path d="" fill="#FFFFFF" transform="translate(0,0)"/>
<path d="" fill="#FFFFFF" transform="translate(0,0)"/>
<path d="" fill="#FFFFFF" transform="translate(0,0)"/>
</svg>
